<svg xmlns="http://www.w3.org/2000/svg" viewBox="0 0 512 512" id="security">
  <defs>
    <linearGradient id="a" x1="481.176" x2="85.097" y1="40.597" y2="436.675" gradientUnits="userSpaceOnUse">
      <stop offset="0" stop-color="#faac1e"></stop>
      <stop offset="1" stop-color="#eb1b45"></stop>
    </linearGradient>
  </defs>
  <path fill="url(#a)" d="M460.994,355.3H299.386a7,7,0,0,0-7,7v97.306a7,7,0,0,0,7,7H460.994a7,7,0,0,0,7-7V362.3A7,7,0,0,0,460.994,355.3Zm-7,97.306H306.386V369.3H453.994ZM288.42,100.333H430.969a7,7,0,0,0,7-7V58.275a7,7,0,0,0-7-7H288.42a7,7,0,0,0-7,7V93.333A7,7,0,0,0,288.42,100.333Zm7-35.058H423.969V86.333H295.42ZM484.5,200.666c12.19,0,22.107-9.017,22.107-20.1V88.822c0-11.083-9.917-20.1-22.107-20.1H467.9V34.37a17.068,17.068,0,0,0-17.048-17.049H59.708A17.068,17.068,0,0,0,42.659,34.37V68.722H27.5c-12.19,0-22.107,9.017-22.107,20.1v91.744c0,11.083,9.917,20.1,22.107,20.1H42.659v20.723H27.5c-12.19,0-22.107,9.017-22.107,20.1v91.744c0,11.083,9.917,20.1,22.107,20.1H42.659v33.853a17.068,17.068,0,0,0,17.049,17.049H264.315v61.157A29.32,29.32,0,0,0,293.6,494.679H466.778a29.32,29.32,0,0,0,29.286-29.287V356.518a29.3,29.3,0,0,0-.588-5.85c6.643-3.471,11.129-9.983,11.129-17.435V241.489c0-11.083-9.917-20.1-22.107-20.1H467.9V200.666Zm0-117.944c4.395,0,8.107,2.794,8.107,6.1v91.744c0,3.307-3.712,6.1-8.107,6.1H467.9v-17.24a17.068,17.068,0,0,0-17.048-17.049H373.88V134.123h76.971A17.068,17.068,0,0,0,467.9,117.074V82.722ZM322.9,327.231v-25.8H437.481v25.8Zm106.435-58.052a50.891,50.891,0,0,1,7.092,18.254H373.88V269.179Zm-84.7-14c10.36-7.18,23.167-10.632,35.557-10.632s25.2,3.452,35.558,10.632Zm-13.585,14H359.88v18.254H323.955A50.891,50.891,0,0,1,331.047,269.179Zm97.362-22.12c-12.872-10.648-30-16.512-48.22-16.512s-35.347,5.864-48.219,16.512c-15.094,12.486-23.073,30.465-23.073,51.993v28.179h-8.456V299.052c0-23.743,8.672-43.717,25.079-57.762,14.461-12.381,33.877-19.2,54.669-19.2s40.208,6.819,54.67,19.2c16.407,14.044,25.079,34.018,25.079,57.761v28.179h-8.457V299.052C451.481,277.524,443.5,259.545,428.409,247.059Zm-137.533,22.12a93.968,93.968,0,0,0-3.806,18.254H151.743V269.179Zm133.093-51.432a101.914,101.914,0,0,0-43.78-9.657,100.579,100.579,0,0,0-50.693,13.3H295.42V200.331H423.969Zm20,12.908c-1.925-1.647-3.931-3.2-6-4.677V193.331a7,7,0,0,0-7-7H288.42a7,7,0,0,0-7,7v35.058a7,7,0,0,0,7,7h22.893a82.772,82.772,0,0,0-14.584,19.79H59.708a3.052,3.052,0,0,1-3.049-3.049v-82.7a3.052,3.052,0,0,1,3.049-3.049H450.851a3.052,3.052,0,0,1,3.048,3.049v71.248A85.632,85.632,0,0,0,443.964,230.655ZM359.88,134.123v18.254H151.743V134.123ZM56.659,34.37a3.052,3.052,0,0,1,3.049-3.049H450.851A3.052,3.052,0,0,1,453.9,34.37v82.7a3.052,3.052,0,0,1-3.048,3.049H59.708a3.052,3.052,0,0,1-3.049-3.049ZM27.5,186.666c-4.395,0-8.107-2.793-8.107-6.1V88.822c0-3.306,3.712-6.1,8.107-6.1H42.659v34.352a17.068,17.068,0,0,0,17.049,17.049h78.035v18.254H59.708a17.068,17.068,0,0,0-17.049,17.049v17.24Zm0,152.667c-4.395,0-8.107-2.793-8.107-6.1V241.489c0-3.306,3.712-6.1,8.107-6.1H42.659V252.13a17.068,17.068,0,0,0,17.049,17.049h78.035v18.254H59.708a17.068,17.068,0,0,0-17.049,17.049v34.851Zm236.813,17.185v33.717H59.708a3.052,3.052,0,0,1-3.049-3.049v-82.7a3.052,3.052,0,0,1,3.049-3.049H286.441V328.12A29.337,29.337,0,0,0,264.315,356.518ZM482.064,465.392a15.3,15.3,0,0,1-15.286,15.287H293.6a15.3,15.3,0,0,1-15.286-15.287V356.518A15.3,15.3,0,0,1,293.6,341.231H466.778a15.3,15.3,0,0,1,15.286,15.287Zm2.434-230c4.395,0,8.107,2.794,8.107,6.1v91.744a5.772,5.772,0,0,1-3.148,4.779,29.347,29.347,0,0,0-15.519-9.892V299.052a96.534,96.534,0,0,0-6.039-34.473v-29.19ZM78.274,58.275a7,7,0,0,1,7-7h25.8a7,7,0,0,1,0,14h-25.8A7,7,0,0,1,78.274,58.275Zm50.61,0a7,7,0,0,1,7-7h25.8a7,7,0,0,1,0,14h-25.8A7,7,0,0,1,128.884,58.275Zm50.61,0a7,7,0,0,1,7-7h25.8a7,7,0,0,1,0,14h-25.8A7,7,0,0,1,179.494,58.275ZM78.274,92.7a7,7,0,0,1,7-7h25.8a7,7,0,0,1,0,14h-25.8A7,7,0,0,1,78.274,92.7Zm50.61,0a7,7,0,0,1,7-7h25.8a7,7,0,0,1,0,14h-25.8A7,7,0,0,1,128.884,92.7Zm50.61,0a7,7,0,0,1,7-7h25.8a7,7,0,0,1,0,14h-25.8A7,7,0,0,1,179.494,92.7Zm-61.42,100.949a7,7,0,0,1-7,7h-25.8a7,7,0,0,1,0-14h25.8A7,7,0,0,1,118.074,193.648Zm50.61,0a7,7,0,0,1-7,7h-25.8a7,7,0,0,1,0-14h25.8A7,7,0,0,1,168.684,193.648Zm50.609,0a7,7,0,0,1-7,7h-25.8a7,7,0,0,1,0-14h25.8A7,7,0,0,1,219.293,193.648ZM118.074,228.072a7,7,0,0,1-7,7h-25.8a7,7,0,0,1,0-14h25.8A7,7,0,0,1,118.074,228.072Zm50.61,0a7,7,0,0,1-7,7h-25.8a7,7,0,0,1,0-14h25.8A7,7,0,0,1,168.684,228.072Zm50.609,0a7,7,0,0,1-7,7h-25.8a7,7,0,0,1,0-14h25.8A7,7,0,0,1,219.293,228.072ZM118.074,329.021a7,7,0,0,1-7,7h-25.8a7,7,0,0,1,0-14h25.8A7,7,0,0,1,118.074,329.021Zm50.61,0a7,7,0,0,1-7,7h-25.8a7,7,0,1,1,0-14h25.8A7,7,0,0,1,168.684,329.021Zm50.609,0a7,7,0,0,1-7,7h-25.8a7,7,0,1,1,0-14h25.8A7,7,0,0,1,219.293,329.021ZM118.074,363.445a7,7,0,0,1-7,7h-25.8a7,7,0,0,1,0-14h25.8A7,7,0,0,1,118.074,363.445Zm50.61,0a7,7,0,0,1-7,7h-25.8a7,7,0,1,1,0-14h25.8A7,7,0,0,1,168.684,363.445Zm50.609,0a7,7,0,0,1-7,7h-25.8a7,7,0,1,1,0-14h25.8A7,7,0,0,1,219.293,363.445Z"></path>
</svg>
