<svg xmlns="http://www.w3.org/2000/svg" viewBox="0 0 48 48" id="deadly">
  <g>
    <path fill="#424242" d="M40 1v24.11l-2 1.74V2H10v24.85l-2-1.74V1a1 1 0 0 1 1-1h30a1 1 0 0 1 1 1Z"></path>
    <path fill="#42a5f5" d="M48 23c0-.57.1-.34-6-5.67V20l3.48 3L33.2 33.67l-4.6-4a7.05 7.05 0 0 0-9.2 0l-4.6 4L2.52 23 6 20v-2.7L.34 22.25C-.15 22.25 0 24.11 0 44a4 4 0 0 0 4 4h40a4 4 0 0 0 4-4V23Zm-4 23H3.71l17-14.79a5 5 0 0 1 6.57 0C46.09 47.54 44.47 46 44 46Z"></path>
    <circle cx="21" cy="13" r="2" fill="#424242"></circle>
    <circle cx="27" cy="13" r="2" fill="#424242"></circle>
    <path fill="#424242" d="m25.71 17.29-1-1a1 1 0 0 0-1.42 0c-1 1.05-1.52 1.36-1.21 2.09S23 19 25 19a1 1 0 0 0 .71-1.71Z"></path>
    <path fill="#42a5f5" d="M32.92 12.78A9 9 0 1 0 17 19.65V22a3 3 0 0 0 3 3h8a3 3 0 0 0 3-3v-2.35a9 9 0 0 0 1.92-6.87Zm-3.67 5.85c-.34.37-.25.48-.25 3.37a1 1 0 0 1-1 1h-1v-2a1 1 0 0 0-2 0v2h-2v-2a1 1 0 0 0-2 0v2h-1a1 1 0 0 1-1-1c0-2.94.08-3-.25-3.37a7 7 0 1 1 10.5 0Z"></path>
  </g>
</svg>
