<svg xmlns="http://www.w3.org/2000/svg" viewBox="0 0 512 512" id="file-storage">
  <path fill="#80eaff" d="M501.6,352.458V482.583a13.026,13.026,0,0,1-13.026,13.026H245.48a14.787,14.787,0,0,1-14.787-14.787V391.435q-11.232.339-22.816.35c-109.061,0-197.472-23.151-197.472-51.71V68.1c.008,28.557,88.416,51.707,197.471,51.707S405.342,96.661,405.347,68.1v163.84H273.485A13.984,13.984,0,0,0,259.5,245.927v37.291h56.2a22.171,22.171,0,0,1,16.02,6.846l34.186,35.749a22.167,22.167,0,0,0,16.02,6.846H481.8A19.8,19.8,0,0,1,501.6,352.458ZM422.25,231.943V276.76h44.817Z"></path>
  <path fill="#57a4ff" d="M123.918,160.892a7,7,0,0,1,7.787-6.114c6.213.749,12.644,1.418,19.114,1.991a7,7,0,0,1-.608,13.972q-.309,0-.624-.027c-6.617-.585-13.2-1.27-19.556-2.035A7,7,0,0,1,123.918,160.892Zm-34.4,1.3c6.413,1.243,13.174,2.4,20.1,3.43a7.073,7.073,0,0,0,1.041.077,7,7,0,0,0,1.024-13.924c-6.725-1-13.285-2.123-19.5-3.328a7,7,0,0,0-2.666,13.745Zm-39.781-10.26c6.37,2.1,13.4,4.086,20.9,5.906a7,7,0,0,0,3.3-13.6c-7.134-1.733-13.8-3.617-19.819-5.6a7,7,0,0,0-4.381,13.3Zm101.082,94.161c-6.48-.573-12.911-1.242-19.113-1.99A7,7,0,0,0,130.03,258c6.349.767,12.929,1.451,19.557,2.037q.315.029.624.028a7,7,0,0,0,.608-13.973Zm-39.137-5c-6.725-1-13.285-2.122-19.5-3.327a7,7,0,0,0-2.666,13.744c6.413,1.243,13.174,2.4,20.1,3.431a7.213,7.213,0,0,0,1.041.077,7,7,0,0,0,1.024-13.925Zm-37.745-7.54c-7.123-1.731-13.791-3.614-19.82-5.6a7,7,0,1,0-4.379,13.3c6.381,2.1,13.41,4.089,20.894,5.906a7,7,0,0,0,3.3-13.6Zm76.882,101.858c-6.48-.573-12.911-1.242-19.113-1.99a7,7,0,0,0-1.676,13.9c6.349.767,12.929,1.452,19.557,2.038q.315.027.624.027a7,7,0,0,0,.608-13.973Zm-39.138-5c-6.717-1-13.277-2.12-19.5-3.326a7,7,0,0,0-2.666,13.744c6.42,1.245,13.182,2.4,20.1,3.43a7,7,0,0,0,2.063-13.848Zm-37.744-7.539c-7.123-1.73-13.791-3.614-19.82-5.6a7,7,0,1,0-4.379,13.3c6.381,2.1,13.41,4.089,20.894,5.907a7,7,0,0,0,3.3-13.6Zm434.277,29.209V482.111A20.04,20.04,0,0,1,488.2,502.128H245.277A21.8,21.8,0,0,1,223.5,480.352V398.994c-5.1.1-10.208.171-15.3.171-53.313,0-103.519-5.458-141.369-15.37-41.247-10.8-63.049-25.783-63.049-43.326V68.567c0-17.543,21.8-32.525,63.049-43.326C104.685,15.33,154.891,9.872,208.2,9.872s103.52,5.458,141.369,15.369c41.247,10.8,63.049,25.783,63.049,43.326V222.784h12.161a7,7,0,0,1,4.956,2.057l44.676,44.786a7,7,0,0,1,2.044,4.943v50.721h4.97A26.817,26.817,0,0,1,508.214,352.077Zm-45.755-26.786V281.57H424.783a7,7,0,0,1-7-7V236.784H276.121a6.983,6.983,0,0,0-6.975,6.976v32.125h46.305a29.289,29.289,0,0,1,21.069,9l34.162,35.723h0a15.215,15.215,0,0,0,10.949,4.679ZM431.783,267.57h20.806l-20.806-20.857Zm-414-199c0,7.386,13.775,19.618,52.6,29.784,36.724,9.617,85.671,14.913,137.822,14.913s101.1-5.3,137.822-14.913c38.822-10.166,52.6-22.4,52.6-29.784s-13.774-19.617-52.6-29.782C309.3,29.168,260.355,23.872,208.2,23.872s-101.1,5.3-137.822,14.913C31.561,48.95,17.786,61.182,17.786,68.567Zm0,88.9c0,7.386,13.775,19.617,52.6,29.782,36.724,9.617,85.671,14.913,137.822,14.913s101.1-5.3,137.822-14.913c38.822-10.165,52.6-22.4,52.6-29.782V91.283c-10.579,7.9-27.044,14.849-49.049,20.611-37.849,9.912-88.055,15.37-141.369,15.37s-103.519-5.458-141.369-15.37c-22-5.762-38.47-12.715-49.049-20.611ZM223.5,384.991v-77.5c-5.1.1-10.208.171-15.3.171-53.313,0-103.519-5.459-141.369-15.37-22-5.762-38.47-12.715-49.049-20.611v68.788c0,7.385,13.775,19.617,52.6,29.783,36.724,9.617,85.671,14.913,137.822,14.913C213.292,385.165,218.405,385.094,223.5,384.991Zm26.786-109.106h4.86V243.76a21,21,0,0,1,20.975-20.976h122.5V180.178c-10.579,7.9-27.044,14.849-49.049,20.611-37.849,9.911-88.055,15.369-141.369,15.369S104.685,210.7,66.835,200.789c-22-5.762-38.47-12.715-49.049-20.611v68.788c0,7.386,13.775,19.617,52.6,29.783,36.724,9.617,85.671,14.913,137.822,14.913,5.634,0,11.3-.084,16.931-.21A26.832,26.832,0,0,1,250.286,275.885Zm243.928,76.192a12.8,12.8,0,0,0-12.785-12.786h-99.8a29.287,29.287,0,0,1-21.069-9L326.4,294.564a15.225,15.225,0,0,0-10.95-4.679H250.286A12.8,12.8,0,0,0,237.5,302.67V480.352a7.785,7.785,0,0,0,7.777,7.776H488.2a6.024,6.024,0,0,0,6.017-6.017Z"></path>
</svg>
