<svg xmlns="http://www.w3.org/2000/svg" viewBox="0 0 512 512" id="hacking">
  <g>
    <path fill="#6cf" d="M191.992,477.99a15.2,15.2,0,1,1-28.758,2.745,3.126,3.126,0,0,0-3.2-3.81,15.2,15.2,0,1,1,7.7-27.843,6.083,6.083,0,0,0,7.252-.471l31.353-26.465a36.9,36.9,0,0,0,5.984.493h4.865v21.645a13.644,13.644,0,0,0,1.276,5.754l-24.75,20.891A6.082,6.082,0,0,0,191.992,477.99ZM150.208,330.5l24.883,20.838A85.037,85.037,0,0,1,182.45,319.5l-13.514-11.318a6.08,6.08,0,0,1-1.723-7.061,15.2,15.2,0,1,0-28.758-2.745,3.126,3.126,0,0,1-3.2,3.81,15.2,15.2,0,1,0,7.7,27.844A6.082,6.082,0,0,1,150.208,330.5Zm238.867-23.555a15.168,15.168,0,0,0-12.723-5.876,3.126,3.126,0,0,1-3.2-3.809,15.167,15.167,0,0,0-18.482-18.054c-14.222-19.9-43.529-41.383-107.342-31.645-19.013-22-25.142-27.945-45.458-24.844-29.157,4.451-16.846-33.362,8.981-33.924,25.649-.559,16.5-.144,22.776,13.269,9.312-14.713,16.912-31.189,26.211-44.364,10.26-14.542,37.835,20.2,34.255-29.793-.277-3.88,15.863-5.383,16.933-10.651,1.493-7.346-7.475-12.238-14.889-18.725-10.134-8.867-37.288-20.819-47.766,16.174-12.4-13.521-24.418-16.012-30.625-31.518,5.5-4.362,18.82-14.651,18.133-19.945-.43-3.315-10.907-9.367-17.57-10.895A182.9,182.9,0,0,0,137.77,91.619C127.582,117.1,127.1,147.8,136.624,179.777c21.667,9.461,14.053,39.449,23,52.535,4.2,6.152,12.494,7.111,27.9,12.569,4.788,1.7,23.548-2.725,26.2-1.5l25.313,26.555c-.237.98-.465,1.919-.69,2.837a78.948,78.948,0,0,1,17.63-2.068c44.43-.157,80.577,36.013,81.492,81,3.719-3.733,7.3-7.436,10.6-11.075L361.4,329.383a6.082,6.082,0,0,1,7.253-.471,15.2,15.2,0,0,0,20.42-21.968ZM362.5,450.5a15.2,15.2,0,0,0-18.62-1.416,6.083,6.083,0,0,1-7.252-.471l-31.429-26.32a37,37,0,0,1-4.989.348h-4.866v21.645a13.666,13.666,0,0,1-1.591,6.423L317.9,470.929a6.081,6.081,0,0,1,1.722,7.061,15.2,15.2,0,1,0,28.758,2.745,3.127,3.127,0,0,1,3.2-3.81A15.194,15.194,0,0,0,362.5,450.5ZM256.264,382.406c-7,0-12.671,8.951-12.671,16.078s5.673,9.732,12.671,9.732,12.672-2.6,12.672-9.732S263.263,382.406,256.264,382.406Zm36.876-50.963c-8.507,0-15.4,9.994-15.4,22.322s6.9,22.322,15.4,22.322,15.4-9.994,15.4-22.322S301.646,331.443,293.14,331.443Zm-73.751,0c-8.506,0-15.4,9.994-15.4,22.322s6.9,22.322,15.4,22.322,15.4-9.994,15.4-22.322S227.9,331.443,219.389,331.443ZM86.635,41.532A14.387,14.387,0,1,0,72.249,27.145,14.387,14.387,0,0,0,86.635,41.532ZM27.779,125.345a14.387,14.387,0,1,0-14.386-14.387A14.387,14.387,0,0,0,27.779,125.345ZM23.118,247.658A14.387,14.387,0,1,0,8.731,233.272,14.386,14.386,0,0,0,23.118,247.658Zm4.661,121.433A14.387,14.387,0,1,0,13.393,354.7,14.387,14.387,0,0,0,27.779,369.091Zm58.856,82.346a14.387,14.387,0,1,0-14.386-14.386A14.386,14.386,0,0,0,86.635,451.437Zm338.55,0A14.387,14.387,0,1,0,410.8,437.051,14.386,14.386,0,0,0,425.185,451.437Zm58.856-82.346A14.387,14.387,0,1,0,469.654,354.7,14.386,14.386,0,0,0,484.041,369.091Zm4.841-121.669A14.387,14.387,0,1,0,474.5,233.035,14.387,14.387,0,0,0,488.882,247.422Zm-4.661-121.669a14.387,14.387,0,1,0-14.387-14.387A14.386,14.386,0,0,0,484.221,125.753ZM425.185,41.532A14.387,14.387,0,1,0,410.8,27.145,14.386,14.386,0,0,0,425.185,41.532Z"></path>
    <path fill="#004fac" d="M484.13,334.092a21.238,21.238,0,0,0-8.621,1.83l-15.2-15.2a7,7,0,0,0-4.95-2.051h-29.09a189.851,189.851,0,0,0,20.211-77.622h22.128a21.387,21.387,0,1,0,0-14h-22.04a189.264,189.264,0,0,0-19.581-78.5h28.372a7,7,0,0,0,4.95-2.051l15.2-15.2a21.4,21.4,0,1,0-10.261-9.536l-12.791,12.791H419.315A192.046,192.046,0,0,0,359.939,73.1L395.7,37.336h10.4a21.364,21.364,0,1,0-1.706-14H392.8a7,7,0,0,0-4.949,2.05L347.566,65.672a190.251,190.251,0,0,0-183.067.065L124.147,25.386a7,7,0,0,0-4.949-2.05H107.605a21.417,21.417,0,1,0-1.706,14h10.4L152.132,73.17a192.061,192.061,0,0,0-59.267,61.374H59.542L46.751,121.753a21.446,21.446,0,1,0-10.261,9.536l15.2,15.2a7,7,0,0,0,4.95,2.051H85.2a189.249,189.249,0,0,0-19.581,78.5H43.394a21.387,21.387,0,1,0,0,14H65.7a189.859,189.859,0,0,0,20.214,77.622H56.643a7,7,0,0,0-4.95,2.051l-15.2,15.2a21.408,21.408,0,1,0,10.26,9.537l12.791-12.791H93.751q1.069,1.736,2.174,3.452a191.111,191.111,0,0,0,56.222,56.441L116.3,428.409H105.9a21.364,21.364,0,1,0,1.706,14H119.2a7,7,0,0,0,4.949-2.05l40.394-40.393q4.435,2.431,9.006,4.638a44.624,44.624,0,0,0,19.536,20.086l-21.091,17.8a22.065,22.065,0,1,0-15.023,40.6,22.063,22.063,0,1,0,42.586-7.75L218.1,459.685a19.918,19.918,0,0,0,12.871,4.715h51.146a19.89,19.89,0,0,0,12.319-4.287l18.187,15.23a22.064,22.064,0,1,0,42.587,7.747A22.063,22.063,0,1,0,340.187,442.5L319.332,425.03a44.616,44.616,0,0,0,20.5-21.021q3.894-1.908,7.692-3.976l40.327,40.326a7,7,0,0,0,4.949,2.05H404.4a21.417,21.417,0,1,0,1.706-14H395.7L359.93,392.637A191.077,191.077,0,0,0,416.074,336.4q1.2-1.851,2.352-3.73h34.032l12.791,12.791a21.379,21.379,0,1,0,18.881-11.367Zm0-229.746a7.387,7.387,0,1,1-7.386,7.386A7.394,7.394,0,0,1,484.13,104.346ZM425.274,20.533a7.387,7.387,0,1,1-7.386,7.387A7.395,7.395,0,0,1,425.274,20.533ZM86.726,35.307a7.387,7.387,0,1,1,7.386-7.387A7.395,7.395,0,0,1,86.726,35.307ZM20.483,111.732a7.387,7.387,0,1,1,7.387,7.387A7.394,7.394,0,0,1,20.483,111.732ZM27.87,362.865a7.387,7.387,0,1,1,7.386-7.386A7.394,7.394,0,0,1,27.87,362.865Zm58.856,82.347a7.387,7.387,0,1,1,7.386-7.387A7.395,7.395,0,0,1,86.726,445.212Zm338.548-14.774a7.387,7.387,0,1,1-7.386,7.387A7.395,7.395,0,0,1,425.274,430.438Zm63.518-203.779a7.387,7.387,0,1,1-7.387,7.387A7.4,7.4,0,0,1,488.792,226.659ZM223.708,65.429c.408,1.449-2.657,7.048-10.219,13.046a7,7,0,0,0-2.149,8.086c4.561,11.393,11.99,17.041,19.174,22.5a90.5,90.5,0,0,1,12.791,11.145,7,7,0,0,0,11.893-2.823c3.157-11.145,7.987-17.752,14.355-19.638,8.429-2.5,18.122,3.372,22.068,6.823,1.666,1.459,3.348,2.8,4.974,4.09,2.615,2.08,6.328,5.034,7.387,6.919-1.359.667-3.46,1.436-4.868,1.951-5.24,1.919-12.417,4.546-11.91,11.649,1.225,17.119-1.693,20.172-2.03,20.464-.9.782-5.2-.154-7.775-.714-6.662-1.453-16.73-3.647-23.186,5.506-5.5,7.789-10.441,16.712-15.22,25.341-1.257,2.271-2.53,4.568-3.822,6.862-3.561-4.524-10.327-4.378-24.379-4.07-15.191.33-25.559,10.531-29.821,19.165-3.967,8.036-3.834,16.249.355,21.972,2.462,3.365,8.555,8.713,21.693,6.7,16.295-2.49,20.1.509,39.106,22.5a7.006,7.006,0,0,0,6.353,2.343c43.826-6.689,75.887.877,95.481,22.469a22.044,22.044,0,0,0-6.771,25.327l-5.709,4.818a89.5,89.5,0,0,0-13.671-17.494,86.272,86.272,0,0,0-61.261-25.434h-.311a85.32,85.32,0,0,0-12.076.906l-25.28-26.52a7,7,0,0,0-2.13-1.524c-2.929-1.353-6.364-.964-14.537.125-3.669.487-10.452,1.389-12.444,1.065-4-1.412-7.485-2.517-10.568-3.494-8.07-2.558-12.024-3.9-13.71-6.363-2.4-3.513-3.327-9.906-4.308-16.674-1.866-12.866-4.156-28.68-18.594-36.8-8.006-28.683-7.6-55.871,1.131-78.954a176.182,176.182,0,0,1,69.163-35.116C221.175,62.781,223.567,64.932,223.708,65.429Zm143.991,240a10.017,10.017,0,0,0,8.2,3.6,8.064,8.064,0,1,1-4.08,14.776,13.1,13.1,0,0,0-15.575.949L342.4,336.445a89.063,89.063,0,0,0-4.569-15.614l8.871-7.488a13.09,13.09,0,0,0,3.623-15.162,8.065,8.065,0,1,1,15.26-1.451A10.027,10.027,0,0,0,367.7,305.433Zm-344.491-64a7.387,7.387,0,1,1,7.387-7.387A7.4,7.4,0,0,1,23.208,241.433Zm56.311-8.623a175.852,175.852,0,0,1,44.909-117.517C121.152,136.2,123,159.021,130,182.549a7,7,0,0,0,3.908,4.418c9.365,4.089,11.392,13.545,13.415,27.5,1.221,8.421,2.374,16.374,6.606,22.566,4.485,6.564,11.429,8.764,21.039,11.809,3.023.958,6.449,2.044,10.3,3.407,3.933,1.4,9.723.761,18.792-.447,2.02-.27,4.777-.637,6.614-.794l17.806,18.679a88.631,88.631,0,0,0-47.352,39.6l-6.136-5.138a22.064,22.064,0,1,0-42.588-7.746A22.063,22.063,0,1,0,147.432,337l21.577,18.07v29.809c0,.531.021,1.057.039,1.583A177.54,177.54,0,0,1,79.519,232.81Zm76.4,93.038a13.083,13.083,0,0,0-15.56-.935,8.066,8.066,0,0,1-10.839-11.654,7.983,7.983,0,0,1,6.757-3.123,10.1,10.1,0,0,0,10.323-12.3,7.984,7.984,0,0,1,1.9-7.2,8.065,8.065,0,0,1,13.358,8.649,13.088,13.088,0,0,0,3.629,15.167l9.449,7.913a90.916,90.916,0,0,0-4.392,15.73Zm34.126,139.2a13.09,13.09,0,0,0-3.623,15.161,8.064,8.064,0,1,1-15.259,1.451,10.1,10.1,0,0,0-10.323-12.3,8.063,8.063,0,1,1,4.081-14.775,13.093,13.093,0,0,0,15.576-.95l28.745-24.264c.523.045,1.045.091,1.572.117V444a20.711,20.711,0,0,0,.285,3.278Zm141.657-11.4a13.086,13.086,0,0,0,15.562.937A8.066,8.066,0,0,1,358.1,466.239a7.972,7.972,0,0,1-6.761,3.122,10.1,10.1,0,0,0-10.319,12.3,7.988,7.988,0,0,1-1.9,7.2,8.065,8.065,0,0,1-13.359-8.649,13.093,13.093,0,0,0-3.629-15.167l-20.259-16.965a20.685,20.685,0,0,0,.406-4.079v-14.51c.176-.009.349-.028.525-.039Zm-1.618-68.766c0,16.906-13.45,30.661-29.981,30.661h-4.823a7,7,0,0,0-7,7V444a6.317,6.317,0,0,1-5.615,6.373V427.028a7,7,0,0,0-14,0V450.4h-5.118V427.028a7,7,0,1,0-14,0V450.4h-5.117V427.028a7,7,0,0,0-14,0v23.344A6.318,6.318,0,0,1,224.812,444V422.543a7,7,0,0,0-7-7H212.99c-16.532,0-29.981-13.755-29.981-30.661V354.85c0-41.714,32.871-75.766,73.276-75.908h.26a72.37,72.37,0,0,1,51.38,21.35,75.192,75.192,0,0,1,22.157,53.668Zm13.974,1.052c.008-.351.026-.7.026-1.052V353.96c0-.2-.014-.4-.015-.6l20.684-17.46A22.064,22.064,0,1,0,379.773,295.3a21.971,21.971,0,0,0-21.534-22.351A83.268,83.268,0,0,0,322.167,246.5c-19.555-7.587-43.747-9.478-71.963-5.636-18.124-20.79-26.52-27.768-49.3-24.29-4.949.757-7.554-.138-8.283-1.133-.807-1.1-.869-3.921.9-7.506A20.457,20.457,0,0,1,211.1,196.564c5.153-.112,10.445-.227,13.184-.051a41.921,41.921,0,0,0,3.1,9.29,7,7,0,0,0,12.255.776c4.136-6.535,7.933-13.39,11.605-20.018,4.809-8.685,9.353-16.887,14.411-24.054.879-1.246,2.682-1.226,8.767.1,5.79,1.261,13.72,2.99,19.923-2.382,5.526-4.787,7.733-13.674,7.033-28.588.844-.334,1.795-.683,2.553-.96,5.663-2.073,12.712-4.654,14.051-11.254,2.038-10.021-6.116-16.507-12.667-21.719-1.5-1.193-3.052-2.427-4.471-3.669-7.939-6.947-21.935-13.659-35.263-9.712-8.577,2.54-15.273,8.844-19.99,18.789-2.3-1.923-4.514-3.608-6.6-5.194-5.31-4.036-9.45-7.185-12.493-12.206,5.97-5.653,13.3-14.831,10.688-24.085a14.453,14.453,0,0,0-1.926-4.154,177.591,177.591,0,0,1,20.834-1.235c97.362,0,176.571,79.21,176.571,176.572A177.438,177.438,0,0,1,344.056,385.934ZM484.13,362.865a7.387,7.387,0,1,1,7.387-7.386A7.394,7.394,0,0,1,484.13,362.865Zm-227.585,6.8c-11.2,0-19.561,12.11-19.561,22.938,0,8.047,5.139,16.646,19.561,16.646s19.561-8.6,19.561-16.646C276.106,381.772,267.741,369.662,256.545,369.662Zm0,25.584c-5.561,0-5.561-1.722-5.561-2.646,0-4.344,3.617-8.938,5.561-8.938s5.561,4.594,5.561,8.938C262.106,393.59,262.106,395.246,256.545,395.246Zm36.552-76.1c-12.486,0-22.267,12.793-22.267,29.126S280.611,377.4,293.1,377.4s22.268-12.794,22.268-29.126S305.583,319.146,293.1,319.146Zm0,44.252c-3.9,0-8.267-6.468-8.267-15.126s4.364-15.126,8.267-15.126,8.268,6.468,8.268,15.126S297,363.4,293.1,363.4Zm-73.1-44.252c-12.486,0-22.267,12.793-22.267,29.126s9.781,29.126,22.267,29.126,22.268-12.794,22.268-29.126S232.479,319.146,219.993,319.146Zm0,44.252c-3.9,0-8.267-6.468-8.267-15.126s4.364-15.126,8.267-15.126,8.268,6.468,8.268,15.126S223.9,363.4,219.993,363.4Z"></path>
  </g>
</svg>
