<svg xmlns="http://www.w3.org/2000/svg" enable-background="new 0 0 512 512" viewBox="0 0 512 512" id="news">
  <path fill="#50536e" d="M473.774,412.634H45.54c-2.228,0-4.028-1.8-4.028-4.028V140.592c0-5.428,2.228-10.399,5.8-13.971
		c3.6-3.6,8.542-5.828,13.999-5.828h396.664c5.457,0,10.399,2.228,13.999,5.828c3.6,3.571,5.828,8.542,5.828,13.971v268.014
		C477.802,410.834,475.973,412.634,473.774,412.634L473.774,412.634z"></path>
  <path fill="#3ed7e5" d="M432.147,383.579H87.138c-4.571,0-8.714-1.857-11.714-4.857c-3-3-4.885-7.142-4.885-11.714V166.419
		c0-4.571,1.886-8.714,4.885-11.714s7.142-4.857,11.714-4.857h345.009c4.571,0,8.714,1.857,11.714,4.857
		c3.028,3,4.885,7.142,4.885,11.714v200.589c0,4.571-1.857,8.714-4.885,11.714C440.861,381.722,436.719,383.579,432.147,383.579
		L432.147,383.579z"></path>
  <path fill="#414459" d="M11.314,404.577h496.658c2.228,0,4.028,1.8,4.028,4.028v24.427c0,7.828-3.2,14.942-8.342,20.085
		c-5.171,5.171-12.285,8.371-20.113,8.371H35.741c-7.828,0-14.942-3.2-20.113-8.371c-5.143-5.143-8.342-12.256-8.342-20.085v-24.427
		C7.285,406.377,9.085,404.577,11.314,404.577L11.314,404.577z"></path>
  <rect width="329.296" height="333.067" x="94.995" y="50.511" fill="#edf2fa" fill-rule="evenodd" clip-rule="evenodd"></rect>
  <path fill="#dae2ed" fill-rule="evenodd" d="M94.995,202.274V101.109h74.796c8.4,0,15.256,6.857,15.256,15.256v75.31c0,8.4-6.857,15.256-15.256,15.256
		h-19.37v29.455l-34.112-34.112H94.995z" clip-rule="evenodd"></path>
  <rect width="49.54" height="333.067" x="374.751" y="50.511" fill="#dae2ed" fill-rule="evenodd" clip-rule="evenodd"></rect>
  <rect width="191.389" height="191.418" x="118.651" y="162.705" fill="#bcc7d6" fill-rule="evenodd" clip-rule="evenodd"></rect>
  <path fill="#98a1ae" fill-rule="evenodd" d="M118.651 162.705h66.396v28.97c0 8.4-6.857 15.256-15.256 15.256h-19.37v29.455l-31.77-31.77V162.705zM310.04 296.041v29.541c-1.686 2.714-3.286 4.171-3.286 4.171l-63.996 24.37H223.73l-63.968-24.37c0 0-17.599-16.142 1.257-40.798 15.285-19.942 29.056-33.484 40.398-37.684-.4-.543-.829-1.086-1.2-1.628-16.228-22.513 7.771-59.997 33.027-62.368 25.284 2.371 49.254 39.855 33.055 62.368-.4.543-.8 1.086-1.228 1.628 11.342 4.2 25.113 17.742 40.398 37.684C307.326 291.412 308.84 293.755 310.04 296.041L310.04 296.041z" clip-rule="evenodd"></path>
  <rect width="281.984" height="64.882" x="118.651" y="74.167" fill="#fc4654" fill-rule="evenodd" clip-rule="evenodd"></rect>
  <path fill="#cc0029" fill-rule="evenodd" d="M185.047,139.049h-66.396v-37.941h51.14c8.4,0,15.256,6.857,15.256,15.256V139.049z" clip-rule="evenodd"></path>
  <path fill="#bcc7d6" d="M325.839,162.705c0-2.224,1.804-4.029,4.029-4.029h51.283c2.224,0,4.029,1.804,4.029,4.029
		s-1.804,4.029-4.029,4.029h-51.283C327.643,166.734,325.839,164.93,325.839,162.705z M394.807,166.734h5.828
		c2.224,0,4.029-1.804,4.029-4.029s-1.804-4.029-4.029-4.029h-5.828c-2.224,0-4.029,1.804-4.029,4.029
		S392.583,166.734,394.807,166.734z M400.635,182.618h-51.283c-2.224,0-4.029,1.804-4.029,4.029c0,2.224,1.804,4.029,4.029,4.029
		h51.283c2.224,0,4.029-1.804,4.029-4.029C404.663,184.422,402.859,182.618,400.635,182.618z M329.868,190.675h5.828
		c2.224,0,4.029-1.804,4.029-4.029c0-2.224-1.804-4.029-4.029-4.029h-5.828c-2.224,0-4.029,1.804-4.029,4.029
		C325.839,188.871,327.643,190.675,329.868,190.675z M329.868,214.588h51.283c2.224,0,4.029-1.804,4.029-4.029
		s-1.804-4.029-4.029-4.029h-51.283c-2.224,0-4.029,1.804-4.029,4.029S327.643,214.588,329.868,214.588z M400.635,206.531h-5.828
		c-2.224,0-4.029,1.804-4.029,4.029s1.804,4.029,4.029,4.029h5.828c2.224,0,4.029-1.804,4.029-4.029
		S402.859,206.531,400.635,206.531z M400.635,230.472h-51.283c-2.224,0-4.029,1.804-4.029,4.029c0,2.224,1.804,4.029,4.029,4.029
		h51.283c2.224,0,4.029-1.804,4.029-4.029C404.663,232.276,402.859,230.472,400.635,230.472z M329.868,238.529h5.828
		c2.224,0,4.029-1.804,4.029-4.029c0-2.224-1.804-4.029-4.029-4.029h-5.828c-2.224,0-4.029,1.804-4.029,4.029
		C325.839,236.725,327.643,238.529,329.868,238.529z M329.868,262.443h51.283c2.224,0,4.029-1.804,4.029-4.029
		c0-2.224-1.804-4.029-4.029-4.029h-51.283c-2.224,0-4.029,1.804-4.029,4.029C325.839,260.639,327.643,262.443,329.868,262.443z
		 M400.635,254.386h-5.828c-2.224,0-4.029,1.804-4.029,4.029c0,2.224,1.804,4.029,4.029,4.029h5.828
		c2.224,0,4.029-1.804,4.029-4.029C404.663,256.19,402.859,254.386,400.635,254.386z M400.635,278.298h-51.283
		c-2.224,0-4.029,1.804-4.029,4.029s1.804,4.029,4.029,4.029h51.283c2.224,0,4.029-1.804,4.029-4.029
		S402.859,278.298,400.635,278.298z M329.868,286.355h5.828c2.224,0,4.029-1.804,4.029-4.029s-1.804-4.029-4.029-4.029h-5.828
		c-2.224,0-4.029,1.804-4.029,4.029S327.643,286.355,329.868,286.355z M329.868,310.298h51.283c2.224,0,4.029-1.804,4.029-4.029
		s-1.804-4.029-4.029-4.029h-51.283c-2.224,0-4.029,1.804-4.029,4.029S327.643,310.298,329.868,310.298z M400.635,302.24h-5.828
		c-2.224,0-4.029,1.804-4.029,4.029s1.804,4.029,4.029,4.029h5.828c2.224,0,4.029-1.804,4.029-4.029S402.859,302.24,400.635,302.24z
		 M400.635,326.153h-51.283c-2.224,0-4.029,1.804-4.029,4.029s1.804,4.029,4.029,4.029h51.283c2.224,0,4.029-1.804,4.029-4.029
		S402.859,326.153,400.635,326.153z M329.868,334.21h5.828c2.224,0,4.029-1.804,4.029-4.029s-1.804-4.029-4.029-4.029h-5.828
		c-2.224,0-4.029,1.804-4.029,4.029S327.643,334.21,329.868,334.21z M381.15,350.094h-51.283c-2.224,0-4.029,1.804-4.029,4.029
		c0,2.224,1.804,4.029,4.029,4.029h51.283c2.224,0,4.029-1.804,4.029-4.029C385.179,351.898,383.375,350.094,381.15,350.094z
		 M400.635,350.094h-5.828c-2.224,0-4.029,1.804-4.029,4.029c0,2.224,1.804,4.029,4.029,4.029h5.828
		c2.224,0,4.029-1.804,4.029-4.029C404.663,351.898,402.859,350.094,400.635,350.094z"></path>
  <path fill="#50536e" fill-rule="evenodd" d="M214.359,352.437l-73.51-27.97c0,0-17.599-16.171,1.286-40.798c15.285-19.942,29.056-33.484,40.398-37.712
		c-0.429-0.514-0.829-1.057-1.229-1.6c-16.199-22.542,7.771-60.025,33.055-62.397c25.256,2.371,49.254,39.855,33.027,62.397
		c-0.371,0.543-0.8,1.086-1.2,1.6c11.342,4.228,25.113,17.77,40.398,37.712c18.856,24.627,1.257,40.798,1.257,40.798
		L214.359,352.437z M268.928,307.069l-27.056,18.228l3.6-47.969C251.157,288.241,259.128,298.098,268.928,307.069L268.928,307.069z
		 M159.791,307.069l27.056,18.228l-3.6-47.969C177.533,288.241,169.562,298.098,159.791,307.069L159.791,307.069z" clip-rule="evenodd"></path>
  <path fill="#353748" fill-rule="evenodd" d="M174.505 288.955h79.681c2.114 0 3.943.771 5.4 2.286 1.457 1.514 2.143 3.371 2.057 5.457l-2 50.254c-.143 4-3.457 7.171-7.457 7.171h-75.681c-4 0-7.285-3.171-7.457-7.171l-2-50.254c-.086-2.086.629-3.943 2.086-5.457C170.59 289.727 172.39 288.955 174.505 288.955L174.505 288.955zM214.359 260.185C126.25 200.875 302.469 200.875 214.359 260.185L214.359 260.185z" clip-rule="evenodd"></path>
  <path fill="#3eb4f0" fill-rule="evenodd" d="M163.505,96.452H15.256C6.857,96.452,0,103.309,0,111.708v75.282c0,8.4,6.857,15.285,15.256,15.285h101.052
		l29.455,29.455v-29.455h17.742c8.4,0,15.256-6.885,15.256-15.285v-75.282C178.761,103.309,171.905,96.452,163.505,96.452
		L163.505,96.452z" clip-rule="evenodd"></path>
  <path fill="#fafcff" d="M216.817,87.881v37.455c0,1.81-1.208,3.399-2.953,3.882c-0.357,0.099-0.719,0.147-1.076,0.147
		c-1.389,0-2.713-0.72-3.454-1.955l-15.002-24.991v22.917c0,2.224-1.804,4.029-4.029,4.029c-2.224,0-4.029-1.804-4.029-4.029V87.881
		c0-1.81,1.208-3.399,2.953-3.882c1.745-0.486,3.597,0.256,4.53,1.808l15.002,24.991V87.881c0-2.224,1.804-4.029,4.029-4.029
		S216.817,85.656,216.817,87.881z M251.215,91.909c2.224,0,4.029-1.804,4.029-4.029c0-2.224-1.804-4.029-4.029-4.029h-22.513
		c-2.224,0-4.029,1.804-4.029,4.029v37.455c0,2.224,1.804,4.029,4.029,4.029h22.513c2.224,0,4.029-1.804,4.029-4.029
		s-1.804-4.029-4.029-4.029H232.73v-12.713h16.942c2.224,0,4.029-1.804,4.029-4.029c0-2.224-1.804-4.029-4.029-4.029H232.73v-8.628
		H251.215z M291.898,83.852c-2.224,0-4.029,1.804-4.029,4.029v24.687l-5.785-8.257c-0.754-1.076-1.985-1.717-3.299-1.717
		c-1.314,0-2.545,0.641-3.299,1.717l-5.785,8.257V87.881c0-2.224-1.804-4.029-4.029-4.029s-4.029,1.804-4.029,4.029v37.398
		c-0.001,0.107,0.002,0.215,0.009,0.321c0.037,0.573,0.194,1.113,0.445,1.595c0.251,0.484,0.604,0.923,1.053,1.282
		c0.373,0.299,0.8,0.534,1.266,0.687c0.495,0.162,1.014,0.227,1.517,0.191c0.582-0.037,1.13-0.198,1.619-0.456
		c0.475-0.251,0.908-0.6,1.262-1.042c0.067-0.083,0.13-0.168,0.189-0.256l9.783-13.959l9.783,13.959
		c0.059,0.088,0.122,0.172,0.188,0.255c0.361,0.451,0.801,0.804,1.287,1.056c0.482,0.25,1.021,0.407,1.592,0.443
		c0.089,0.006,0.178,0.009,0.268,0.009c0.404,0,0.81-0.06,1.204-0.184c0.483-0.152,0.928-0.393,1.314-0.703
		c0.449-0.359,0.802-0.798,1.053-1.282c0.251-0.482,0.407-1.023,0.445-1.595c0.007-0.106,0.01-0.214,0.009-0.321V87.881
		C295.926,85.656,294.122,83.852,291.898,83.852z M319.639,102.595c-8.442,0-9.113-2.315-9.113-5.343
		c0-2.946,2.397-5.343,5.343-5.343h5.542c1.954,0,3.542,1.589,3.542,3.542c0,2.224,1.804,4.029,4.029,4.029s4.029-1.804,4.029-4.029
		c0-6.396-5.204-11.599-11.599-11.599h-5.542c-7.389,0-13.4,6.011-13.4,13.4c0,8.891,5.777,13.4,17.17,13.4
		c2.93,0,5.314,2.383,5.314,5.313c0,2.946-2.384,5.343-5.314,5.343h-5.571c-1.954,0-3.542-1.589-3.542-3.542
		c0-2.224-1.804-4.029-4.029-4.029s-4.029,1.804-4.029,4.029c0,6.396,5.204,11.599,11.599,11.599h5.571
		c7.373,0,13.371-6.011,13.371-13.4C333.01,108.593,327.012,102.595,319.639,102.595z"></path>
  <rect width="25.884" height="64.882" x="374.751" y="74.167" fill="#cc0029" fill-rule="evenodd" clip-rule="evenodd"></rect>
  <path fill="#414459" fill-rule="evenodd" d="M87.424,111.622c20.142,0,36.455,15.028,36.455,33.512c0,10.314-5.057,19.513-12.999,25.656v11.599
		c0,2.571-2.114,4.685-4.714,4.685H68.682c-2.571,0-4.685-2.114-4.685-4.685V170.79c-7.971-6.143-13.028-15.342-13.028-25.656
		C50.969,126.65,67.282,111.622,87.424,111.622L87.424,111.622z" clip-rule="evenodd"></path>
  <path fill="#353748" d="M72.825 176.904c0-1.714 1.4-3.114 3.114-3.114 1.714 0 3.114 1.4 3.114 3.114v10.171h-6.228V176.904zM84.31 176.904c0-1.714 1.4-3.114 3.114-3.114 1.714 0 3.114 1.4 3.114 3.114v10.171H84.31V176.904zM95.795 176.904c0-1.714 1.4-3.114 3.114-3.114 1.743 0 3.143 1.4 3.143 3.114v10.171h-6.257V176.904z"></path>
  <path fill="#3eb4f0" fill-rule="evenodd" d="M81.767 147.42c-2.543 4.4-8.171 5.914-12.571 3.371-4.4-2.543-5.914-8.171-3.371-12.571L81.767 147.42zM93.109 147.42c2.543 4.4 8.171 5.914 12.571 3.371 4.4-2.543 5.914-8.171 3.371-12.571L93.109 147.42z" clip-rule="evenodd"></path>
  <path fill="#353748" fill-rule="evenodd" d="M84.51,111.737c18.77,1.371,33.541,15.799,33.541,33.398c0,10.314-5.085,19.513-13.028,25.656v11.599
		c0,1.971-1.257,3.657-2.971,4.343v0.343h4.114c2.6,0,4.714-2.114,4.714-4.685V170.79c7.942-6.143,12.999-15.342,12.999-25.656
		c0-18.485-16.313-33.512-36.455-33.512C86.452,111.622,85.481,111.679,84.51,111.737L84.51,111.737z" clip-rule="evenodd"></path>
  <path fill="#26a2e0" fill-rule="evenodd" d="M165.934,139.049v10.799v12.856v24.284c0,8.4-6.885,15.285-15.285,15.285h12.856
		c8.4,0,15.256-6.885,15.256-15.285v-24.284v-12.856v-10.799v-18.256v-9.085c0-8.4-6.857-15.256-15.256-15.256h-12.856
		c8.4,0,15.285,6.857,15.285,15.256v9.085V139.049z" clip-rule="evenodd"></path>
  <path fill="#2b2d3b" fill-rule="evenodd" d="M215.188 215.702c16.713 3.714 26.656 17.313-6.085 40.798 1.628 1.2 3.371 2.428 5.257 3.686C257.871 230.901 236.93 216.074 215.188 215.702L215.188 215.702zM244.072 346.923h-15.256c-19.913 0-39.826 0-59.768 0v.029c.171 4 3.457 7.171 7.457 7.171 25.227 0 50.454 0 75.681 0 3.743 0 6.885-2.771 7.4-6.4.029-.257.057-.514.057-.771.686-16.742 1.343-33.512 2-50.254.086-2.086-.6-3.943-2.057-5.457-1.457-1.514-3.286-2.286-5.4-2.286h-.657c.257 8.971-.771 20.056-1.143 29.256l-.857 21.542C251.357 343.781 248.072 346.923 244.072 346.923L244.072 346.923z" clip-rule="evenodd"></path>
</svg>
