<svg xmlns="http://www.w3.org/2000/svg" viewBox="0 0 512 512" id="antivirus">
  <path fill="#ffbe00" d="M396.19,64.2L266.09,28.85c-6.6-1.79-13.59-1.79-20.19,0L115.81,64.2c-16.72,4.54-28.4,19.82-28.4,37.15V254.22c0,39.88,16.34,78.37,44.85,105.62l.49,.46c31.82,30.26,70.8,52.66,112.73,64.77,3.44,.99,6.98,1.49,10.52,1.49s7.08-.5,10.52-1.49c41.93-12.11,80.92-34.51,112.75-64.78l.48-.46c28.5-27.24,44.84-65.73,44.84-105.61V101.35c0-17.33-11.68-32.61-28.4-37.15Z"></path>
  <circle cx="256" cy="388.65" r="95.85" fill="#52b047"></circle>
  <path fill="#35812c" d="M249.38,426.55h0c-3.32,0-6.5-1.32-8.84-3.66l-21.21-21.21c-4.88-4.88-4.88-12.8,0-17.68,4.88-4.88,12.8-4.88,17.68,0l12.37,12.37,33.42-33.42c4.88-4.88,12.8-4.88,17.68,0,4.88,4.88,4.88,12.8,0,17.68l-42.26,42.26c-2.34,2.34-5.52,3.66-8.84,3.66Z"></path>
  <g>
    <path fill="#fc9900" d="M299.76,145.01v-20.74c0-24.13-19.63-43.76-43.76-43.76s-43.76,19.63-43.76,43.76v20.74c-14.86,5.18-25.56,19.33-25.56,35.94v62.52c0,20.99,17.08,38.06,38.06,38.06h62.52c20.99,0,38.06-17.07,38.06-38.06v-62.52c0-16.61-10.7-30.76-25.56-35.94Zm-62.52-20.74c0-10.34,8.42-18.76,18.76-18.76s18.76,8.42,18.76,18.76v18.62h-37.52v-18.62Zm63.08,119.2c0,7.2-5.86,13.06-13.06,13.06h-62.52c-7.2,0-13.06-5.86-13.06-13.06v-62.52c0-7.2,5.86-13.06,13.06-13.06h62.52c7.2,0,13.06,5.86,13.06,13.06v62.52Z"></path>
    <circle cx="256" cy="212.21" r="17.66" fill="#fc9900"></circle>
  </g>
</svg>
