<svg xmlns="http://www.w3.org/2000/svg" viewBox="0 0 3000 2600" width="3000" height="2600"><g transform="translate(154.0 290.0) rotate(0.0 317.0 416.0) scale(2.5219577393075356 2.513595166163142)"><svg width="251.392" height="331" viewBox="0 0 251.392 331"><path d="M225.206 143.503H205.13V79.607C205.129 35.712 169.418 0 125.522 0S45.914 35.712 45.914 79.608v63.896H26.187C11.724 143.504 0 155.228 0 169.691v135.123c0 14.463 11.724 26.187 26.187 26.187h199.019c14.463 0 26.187-11.724 26.187-26.187V169.691c0-14.463-11.724-26.187-26.187-26.187zm-147.868 0V79.607c0-26.568 21.615-48.184 48.184-48.184s48.184 21.615 48.184 48.184v63.896H77.339z" fill="#5764ff"/><path d="M144.9 226.777c0-10.413-8.441-18.854-18.854-18.854s-18.854 8.441-18.854 18.854c0 7.192 4.029 13.44 9.951 16.619v20.566a8.903 8.903 0 1 0 17.806 0v-20.566c5.922-3.18 9.951-9.427 9.951-16.619z" fill="#2b3656"/></svg></g><g transform="translate(650.0 472.0) rotate(-7.464530382196836 887.0 880.0) scale(3.6180601160879267 3.6194032920118127)"><svg width="490.318" height="486.268" viewBox="0 0 490.318 486.268"><linearGradient id="a" gradientUnits="userSpaceOnUse" x1="189.958" x2="327.368" y1="56.705" y2="517.499"><stop offset="0" stop-color="#bfc4d8"/><stop offset="1" stop-color="#2b3656"/></linearGradient><linearGradient xmlns:xlink="http://www.w3.org/1999/xlink" id="b" x1="224.9" x2="260.646" xlink:href="#a" y1="50.737" y2="476.686"/><linearGradient id="c" gradientUnits="userSpaceOnUse" x1="166.826" x2="305.06" y1="5.098" y2="427.93"><stop offset="0" stop-color="#2b3656"/><stop offset="1" stop-color="#bfc4d8"/></linearGradient><path d="m107.39 462.325-3.983-2.534c-23.655-15.019-57.733-49.627-80.401-99.723l9.472 20.933c22.669 50.096 56.747 84.704 80.401 99.723l3.983 2.534z" fill="#2b3656"/><path d="m480.846 160.492-59.777 127.685c-41.194 87.99-109.605 131.265-159.734 152.088-60.842 25.261-118.375 28.118-149.146 22.876l-4.799-.815 9.472 20.933 4.799.815c30.771 5.242 88.304 2.386 149.146-22.876 50.129-20.824 118.54-64.098 159.734-152.088l59.777-127.685z" fill="#2b3656"/><path d="m323.832 0 157.014 160.492-59.777 127.685c-41.194 87.991-109.605 131.265-159.734 152.088-60.842 25.261-118.375 28.118-149.146 22.876l-4.799-.815-3.983-2.534c-25.612-16.261-63.443-55.487-85.781-112.472-18.407-46.962-31.7-121.397 9.493-209.387L86.896 10.248z" fill="url(#a)"/><path d="m313.072 22.995-210.108 9.084-53.156 113.543c-69.375 148.187 23.207 265.029 68.352 293.711 54.254 9.226 211.612-12.294 280.987-160.481l53.156-113.543z" fill="url(#b)"/><path d="M142.89 449.107c-9.857 0-18.664-.682-26.062-1.941l-1.578-.268-1.351-.858c-25.695-16.325-60.476-55.385-80.257-105.848-17.4-44.39-29.969-114.763 8.971-197.938L97.81 24.35l218.461-9.445L461.833 163.69l-55.491 118.531c-38.822 82.926-103.169 123.665-150.313 143.24-40.649 16.878-82.099 23.646-113.139 23.646zm-21.814-17.347c39.336 6.126 92.861-6.027 128.86-20.974 44.549-18.497 105.35-56.985 142.016-135.302l50.821-108.556L309.872 31.086l-201.755 8.722-51.115 109.183c-36.547 78.066-24.832 143.911-8.567 185.402 13.127 33.49 40.58 76.305 72.64 97.367z" fill="url(#c)"/></svg></g><g transform="translate(1416.0 1520.0) rotate(0.0 717.0 222.0) scale(1.5586583799083065 1.5740103941407109)"><svg width="920.022" height="282.082" viewBox="0 0 920.022 282.082"><rect fill="#C180FF" height="282.082" rx="30" width="920.022" fill-opacity=".75"/><g fill="#2b3656"><path d="M108.425 181.996a3 3 0 0 1-3-3v-75.911a3 3 0 1 1 6 0v75.911a3 3 0 0 1-3 3z"/><path d="M71.096 170.88a2.999 2.999 0 0 1-1.753-5.436l74.663-53.677a3 3 0 0 1 3.502 4.872l-74.663 53.677a2.985 2.985 0 0 1-1.748.564z"/><path d="M145.753 170.88a2.985 2.985 0 0 1-1.748-.564l-74.663-53.677a3 3 0 1 1 3.502-4.872l74.663 53.677a3 3 0 0 1-1.753 5.436zm79.867 11.116a3 3 0 0 1-3-3v-75.911a3 3 0 1 1 6 0v75.911a3 3 0 0 1-3 3z"/><path d="M188.291 170.88a2.999 2.999 0 0 1-1.753-5.436l74.664-53.677a3 3 0 0 1 3.502 4.872l-74.664 53.677a2.985 2.985 0 0 1-1.748.564z"/><path d="M262.949 170.88a2.985 2.985 0 0 1-1.748-.564l-74.664-53.677a3 3 0 1 1 3.502-4.872l74.664 53.677a3 3 0 0 1-1.753 5.436zm79.866 11.116a3 3 0 0 1-3-3v-75.911a3 3 0 1 1 6 0v75.911a3 3 0 0 1-3 3z"/><path d="M305.486 170.88a2.999 2.999 0 0 1-1.753-5.436l74.664-53.677a3 3 0 0 1 3.502 4.872l-74.664 53.677a2.985 2.985 0 0 1-1.748.564z"/><path d="M380.144 170.88a2.985 2.985 0 0 1-1.748-.564l-74.664-53.677a3 3 0 1 1 3.502-4.872l74.664 53.677a3 3 0 0 1-1.753 5.436zm79.867 11.116a3 3 0 0 1-3-3v-75.911a3 3 0 1 1 6 0v75.911a3 3 0 0 1-3 3z"/><path d="M422.681 170.88a2.999 2.999 0 0 1-1.753-5.436l74.664-53.677a3 3 0 0 1 3.502 4.872l-74.664 53.677a2.985 2.985 0 0 1-1.748.564z"/><path d="M497.34 170.88a2.985 2.985 0 0 1-1.748-.564l-74.664-53.677a3 3 0 1 1 3.502-4.872l74.664 53.677a3 3 0 0 1-1.753 5.436zm79.867 11.116a3 3 0 0 1-3-3v-75.911a3 3 0 1 1 6 0v75.911a3 3 0 0 1-3 3z"/><path d="M539.878 170.88a2.999 2.999 0 0 1-1.753-5.436l74.663-53.677a3 3 0 0 1 3.502 4.872l-74.663 53.677a2.985 2.985 0 0 1-1.748.564z"/><path d="M614.535 170.88a2.985 2.985 0 0 1-1.748-.564l-74.663-53.677a3 3 0 1 1 3.502-4.872l74.663 53.677a3 3 0 0 1-1.753 5.436zm79.867 11.116a3 3 0 0 1-3-3v-75.911a3 3 0 1 1 6 0v75.911a3 3 0 0 1-3 3z"/><path d="M657.073 170.88a2.999 2.999 0 0 1-1.753-5.436l74.664-53.677a3 3 0 0 1 3.502 4.872l-74.664 53.677a2.985 2.985 0 0 1-1.748.564z"/><path d="M731.731 170.88a2.985 2.985 0 0 1-1.748-.564l-74.664-53.677a3 3 0 1 1 3.502-4.872l74.664 53.677a3 3 0 0 1-1.753 5.436zm79.866 11.116a3 3 0 0 1-3-3v-75.911a3 3 0 1 1 6 0v75.911a3 3 0 0 1-3 3z"/><path d="M774.268 170.88a2.999 2.999 0 0 1-1.753-5.436l74.664-53.677a3 3 0 0 1 3.502 4.872l-74.664 53.677a2.985 2.985 0 0 1-1.748.564z"/><path d="M848.927 170.88a2.985 2.985 0 0 1-1.748-.564l-74.664-53.677a3 3 0 1 1 3.502-4.872l74.664 53.677a3 3 0 0 1-1.753 5.436z"/></g></svg></g></svg>